name Walk5.mot
datacolumns 19
datarows 22
range 1.13000000 1.23500000
endheader

                time	   L_ground_force_vx	   L_ground_force_vy	   L_ground_force_vz	   L_ground_force_px	   L_ground_force_py	   L_ground_force_pz	   R_ground_force_vx	   R_ground_force_vy	   R_ground_force_vz	   R_ground_force_px	   R_ground_force_py	   R_ground_force_pz	   L_ground_torque_x	   L_ground_torque_y	   L_ground_torque_z	   R_ground_torque_x	   R_ground_torque_y	   R_ground_torque_z	
          1.13000000	         -5.45262883	         88.15065465	         -6.59388781	         -0.07442265	          0.00000000	         -0.00858749	         -0.00000000	          0.00000000	          0.00000000	         -0.00000000	          0.00000000	         -0.00000000	          0.00000000	          0.14889680	          0.00000000	          0.00000000	         -0.00000000	          0.00000000	
          1.13500000	         -9.17004260	        126.49696493	         -9.30004154	         -0.16328334	          0.00000000	         -0.01884903	         -0.00000000	         -0.00000000	          0.00000000	         -0.00000000	          0.00000000	         -0.00000000	          0.00000000	          0.23055545	          0.00000000	          0.00000000	         -0.00000000	          0.00000000	
          1.14000000	        -14.13838750	        165.30881578	        -11.95982734	         -0.24104445	          0.00000000	         -0.02789802	          0.00000000	         -0.00000000	          0.00000000	         -0.00000000	          0.00000000	         -0.00000000	          0.00000000	          0.32705135	          0.00000000	          0.00000000	         -0.00000000	          0.00000000	
          1.14500000	        -20.31710548	        202.75213668	        -14.39016717	         -0.30538721	          0.00000000	         -0.03548099	          0.00000000	         -0.00000001	          0.00000000	         -0.00000000	          0.00000000	         -0.00000000	          0.00000000	          0.43611665	          0.00000000	          0.00000000	         -0.00000000	          0.00000000	
          1.15000000	        -27.48343591	        237.67496374	        -16.42604446	         -0.35588525	          0.00000000	         -0.04155873	          0.00000000	         -0.00000002	          0.00000000	         -0.00000000	          0.00000000	         -0.00000000	          0.00000000	          0.55385405	          0.00000000	          0.00000000	         -0.00000000	          0.00000000	
          1.15500000	        -35.27843246	        269.49488802	        -17.94670652	         -0.39335945	          0.00000000	         -0.04623128	          0.00000000	         -0.00000002	          0.00000000	         -0.00000000	          0.00000000	         -0.00000000	          0.00000000	          0.67489769	          0.00000000	          0.00000000	          0.00000000	          0.00000000	
          1.16000000	        -43.27828713	        298.04031808	        -18.87812445	         -0.41936487	          0.00000000	         -0.04967648	          0.00000000	         -0.00000003	          0.00000000	         -0.00000000	          0.00000000	         -0.00000000	          0.00000000	          0.79324099	          0.00000000	          0.00000000	          0.00000000	          0.00000000	
          1.16500000	        -51.07293487	        323.46538871	        -19.18719598	         -0.43580262	          0.00000000	         -0.05210635	          0.00000001	         -0.00000004	          0.00000000	         -0.00000000	          0.00000000	         -0.00000000	          0.00000000	          0.90312205	          0.00000000	          0.00000000	          0.00000000	          0.00000000	
          1.17000000	        -58.34877966	        346.12500490	        -18.87369053	         -0.44464147	          0.00000000	         -0.05373974	          0.00000001	         -0.00000006	          0.00000000	         -0.00000000	          0.00000000	         -0.00000000	          0.00000000	          0.99958765	          0.00000000	          0.00000000	          0.00000000	          0.00000000	
          1.17500000	        -64.94125791	        366.44551821	        -17.96249025	         -0.44773389	          0.00000000	         -0.05478305	          0.00000001	         -0.00000007	          0.00000000	         -0.00000000	          0.00000000	         -0.00000000	          0.00000000	          1.07917637	          0.00000000	          0.00000000	          0.00000000	          0.00000000	
          1.18000000	        -70.82175543	        384.83287412	        -16.49944739	         -0.44671118	          0.00000000	         -0.05541523	          0.00000001	         -0.00000008	          0.00000000	         -0.00000000	          0.00000000	         -0.00000000	          0.00000000	          1.14076663	          0.00000000	          0.00000000	          0.00000000	          0.00000000	
          1.18500000	        -76.02629631	        401.61478487	        -14.54950138	         -0.44294300	          0.00000000	         -0.05578125	          0.00000001	         -0.00000008	         -0.00000000	         -0.00000000	          0.00000000	         -0.00000000	          0.00000000	          1.18573168	          0.00000000	          0.00000000	          0.00000000	          0.00000000	
          1.19000000	        -80.57590697	        417.00973847	        -12.19636620	         -0.43753713	          0.00000000	         -0.05599179	          0.00000002	         -0.00000008	         -0.00000000	         -0.00000000	          0.00000000	         -0.00000000	          0.00000000	          1.21744608	          0.00000000	          0.00000000	          0.00000000	          0.00000000	
          1.19500000	        -84.43486755	        431.14273427	         -9.53851518	         -0.43135488	          0.00000000	         -0.05612554	          0.00000001	         -0.00000007	         -0.00000000	          0.00000000	          0.00000000	          0.00000000	          0.00000000	          1.24063589	          0.00000000	          0.00000000	          0.00000000	          0.00000000	
          1.20000000	        -87.52628474	        444.10350463	         -6.67706075	         -0.42503231	          0.00000000	         -0.05623461	          0.00000001	         -0.00000004	         -0.00000000	          0.00000000	          0.00000000	          0.00000000	          0.00000000	          1.26034770	          0.00000000	          0.00000000	          0.00000000	          0.00000000	
          1.20500000	        -89.78391523	        455.98557289	         -3.70575501	         -0.41900929	          0.00000000	         -0.05635128	          0.00000001	          0.00000001	         -0.00000000	          0.00000000	          0.00000000	          0.00000000	          0.00000000	          1.28095401	          0.00000000	          0.00000000	          0.00000000	          0.00000000	
          1.21000000	        -91.19261893	        466.88522519	         -0.70772364	         -0.41356309	          0.00000000	         -0.05649263	         -0.00000000	          0.00000008	         -0.00000001	          0.00000000	          0.00000000	          0.00000000	          0.00000000	          1.30530937	          0.00000000	          0.00000000	          0.00000000	          0.00000000	
          1.21500000	        -91.79223698	        476.90209185	          2.24858361	         -0.40884048	          0.00000000	         -0.05666525	         -0.00000002	          0.00000019	         -0.00000001	          0.00000000	          0.00000000	          0.00000000	          0.00000000	          1.33426120	          0.00000000	          0.00000000	          0.00000000	          0.00000000	
          1.22000000	        -91.65567776	        486.15067353	          5.11031160	         -0.40488944	          0.00000000	         -0.05686874	         -0.00000004	          0.00000033	         -0.00000001	          0.00000000	          0.00000000	          0.00000000	          0.00000000	          1.36689022	          0.00000000	          0.00000000	          0.00000000	          0.00000000	
          1.22500000	        -90.86733330	        494.75610595	          7.83463128	         -0.40169020	          0.00000000	         -0.05709776	         -0.00000006	          0.00000051	         -0.00000001	          0.00000000	          0.00000000	          0.00000000	          0.00000000	          1.40135573	          0.00000000	          0.00000000	         -0.00000000	          0.00000000	
          1.23000000	        -89.51463245	        502.83497808	         10.38219254	         -0.39918014	          0.00000000	         -0.05734267	         -0.00000010	          0.00000073	         -0.00000001	          0.00000000	          0.00000000	          0.00000000	          0.00000000	          1.43557269	          0.00000000	          0.00000000	         -0.00000000	          0.00000000	
          1.23500000	        -87.68744571	        510.47776815	         12.71368077	         -0.39727152	          0.00000000	         -0.05758938	         -0.00000014	          0.00000098	         -0.00000001	          0.00000000	          0.00000000	          0.00000000	          0.00000000	          1.46791618	          0.00000000	          0.00000000	         -0.00000000	          0.00000000	
